HIERARCHY
ROOT Hips
{
	OFFSET -0.001795 -0.223333 0.028219
	CHANNELS 6 Xposition Yposition Zposition Zrotation Yrotation Xrotation 
	JOINT LeftUpLeg
	{
		OFFSET 0.069520 -0.091406 -0.006815
		CHANNELS 3 Zrotation Yrotation Xrotation
		JOINT LeftLeg
		{
			OFFSET 0.034277 -0.375199 -0.004496
			CHANNELS 3 Zrotation Yrotation Xrotation
			JOINT LeftFoot
			{
				OFFSET -0.013596 -0.397961 -0.043693
				CHANNELS 3 Zrotation Yrotation Xrotation
				JOINT LeftToe
				{
					OFFSET 0.026358 -0.055791 0.119288
					CHANNELS 3 Zrotation Yrotation Xrotation
					End Site
					{
						OFFSET 0.000000 0.000000 0.000000
					}
				}
			}
		}
	}
	JOINT RightUpLeg
	{
		OFFSET -0.067670 -0.090522 -0.004320
		CHANNELS 3 Zrotation Yrotation Xrotation
		JOINT RightLeg
		{
			OFFSET -0.038290 -0.382569 -0.008850
			CHANNELS 3 Zrotation Yrotation Xrotation
			JOINT RightFoot
			{
				OFFSET 0.015774 -0.398415 -0.042312
				CHANNELS 3 Zrotation Yrotation Xrotation
				JOINT RightToe
				{
					OFFSET -0.025372 -0.048144 0.123348
					CHANNELS 3 Zrotation Yrotation Xrotation
					End Site
					{
						OFFSET 0.000000 0.000000 0.000000
					}
				}
			}
		}
	}
	JOINT Spine
	{
		OFFSET -0.002533 0.108963 -0.026696
		CHANNELS 3 Zrotation Yrotation Xrotation
		JOINT Spine1
		{
			OFFSET 0.005487 0.135180 0.001092
			CHANNELS 3 Zrotation Yrotation Xrotation
			JOINT Spine2
			{
				OFFSET 0.001457 0.052922 0.025425
				CHANNELS 3 Zrotation Yrotation Xrotation
				JOINT Neck
				{
					OFFSET -0.002778 0.213870 -0.042857
					CHANNELS 3 Zrotation Yrotation Xrotation
					JOINT Head
					{
						OFFSET 0.005152 0.064970 0.051349
						CHANNELS 3 Zrotation Yrotation Xrotation
						End Site
						{
							OFFSET 0.000000 0.000000 0.000000
						}
					}
				}
				JOINT LeftShoulder
				{
					OFFSET 0.078845 0.121749 -0.034090
					CHANNELS 3 Zrotation Yrotation Xrotation
					JOINT LeftArm
					{
						OFFSET 0.090977 0.030469 -0.008868
						CHANNELS 3 Zrotation Yrotation Xrotation
						JOINT LeftForeArm
						{
							OFFSET 0.259612 -0.012772 -0.027456
							CHANNELS 3 Zrotation Yrotation Xrotation
							JOINT LeftHand
							{
								OFFSET 0.249234 0.008986 -0.001171
								CHANNELS 3 Zrotation Yrotation Xrotation
								End Site
								{
									OFFSET 0.000000 0.000000 0.000000
								}
							}
						}
					}
				}
				JOINT RightShoulder
				{
					OFFSET -0.081759 0.118833 -0.038615
					CHANNELS 3 Zrotation Yrotation Xrotation
					JOINT RightArm
					{
						OFFSET -0.096012 0.032551 -0.009143
						CHANNELS 3 Zrotation Yrotation Xrotation
						JOINT RightForeArm
						{
							OFFSET -0.253742 -0.013329 -0.021401
							CHANNELS 3 Zrotation Yrotation Xrotation
							JOINT RightHand
							{
								OFFSET -0.255298 0.007772 -0.005559
								CHANNELS 3 Zrotation Yrotation Xrotation
								End Site
								{
									OFFSET 0.000000 0.000000 0.000000
								}
							}
						}
					}
				}
			}
		}
	}
}
MOTION
Frames: 6
Frame Time: 0.050000
0.000000 0.959403 0.000000 -2.007958 2.116801 2.635476 3.998772 0.005633 1.844074 -4.189851 0.416954 -4.758972 8.063934 17.562155 12.403174 0.000000 0.000000 0.000000 -0.833893 0.255875 -2.472309 3.588560 -0.390918 0.723769 -5.454706 -15.090357 13.434120 0.000000 0.000000 0.000000 -1.517869 -0.125888 5.187309 4.308181 -0.285921 -25.873940 -1.649778 -1.297085 28.668354 0.813411 1.198815 -27.763817 0.000000 0.000000 0.000000 -27.669961 2.725022 -3.552547 -50.258332 -4.902209 -6.358784 -9.520356 -21.768578 2.941760 0.000000 0.000000 0.000000 18.973190 2.419442 0.385179 57.200055 4.057553 -6.294704 8.704387 25.870014 3.091312 0.000000 0.000000 0.000000 
0.000114 0.959627 0.000722 -2.246978 1.518913 3.160174 4.187564 -0.009986 1.670224 -3.957360 0.407174 -5.341169 9.033554 18.987024 12.546386 0.000000 0.000000 0.000000 -0.687078 0.307503 -3.009008 3.213406 -0.344430 0.424530 -5.124810 -14.562116 13.412888 0.000000 0.000000 0.000000 -0.961772 -0.132928 4.450457 3.991629 -0.220921 -25.892468 -1.621100 -0.739455 28.502812 0.664520 1.348413 -28.219569 0.000000 0.000000 0.000000 -27.925062 3.574217 -4.225333 -50.051623 -4.576790 -6.425113 -9.376607 -21.531847 2.875841 0.000000 0.000000 0.000000 18.729261 2.341431 0.386272 58.131310 2.914794 -6.892854 7.803615 27.857681 3.185983 0.000000 0.000000 0.000000 
0.000398 0.959095 0.001070 -1.976268 1.476471 3.434999 4.153526 -0.025254 1.389684 -4.678224 0.452293 -4.895532 9.506651 19.691585 12.766345 0.000000 0.000000 0.000000 -1.039062 0.354137 -3.506994 2.775230 -0.291710 0.605568 -4.825689 -14.046563 13.548989 0.000000 0.000000 0.000000 -0.706979 -0.133116 4.086089 3.479278 -0.099475 -26.014396 -1.540850 -1.021193 28.519361 0.290429 1.476683 -27.775930 0.000000 0.000000 0.000000 -27.994420 3.058243 -3.769331 -49.294730 -4.384219 -6.448754 -8.884545 -21.191763 2.733807 0.000000 0.000000 0.000000 18.775402 2.859905 0.581494 58.069507 2.890726 -6.879494 7.106851 27.537511 2.953422 0.000000 0.000000 0.000000 
0.000683 0.959173 0.001182 -2.000580 1.194196 3.283197 3.727699 -0.006176 1.385834 -4.192366 0.427332 -4.434906 10.146505 20.620947 12.968742 0.000000 0.000000 0.000000 -1.037938 0.375578 -3.744189 2.944319 -0.301376 1.216958 -5.328843 -15.063694 14.484576 0.000000 0.000000 0.000000 -0.705794 -0.138094 4.214840 3.893588 -0.168978 -26.494095 -1.776821 -0.865610 28.884636 0.439020 1.369146 -27.449923 0.000000 0.000000 0.000000 -28.891907 3.535408 -4.188141 -48.414293 -3.902479 -6.556373 -8.861340 -20.752114 2.666916 0.000000 0.000000 0.000000 18.367893 3.177886 0.778564 57.802682 2.814976 -6.936323 7.811645 27.661917 3.132458 0.000000 0.000000 0.000000 
0.001098 0.959188 0.000875 -1.860235 1.337516 3.154139 3.636613 -0.007451 1.308590 -4.287287 0.433391 -4.235715 9.475438 19.640156 12.697880 0.000000 0.000000 0.000000 -1.292016 0.361959 -3.612119 2.838698 -0.292335 1.046536 -5.430673 -15.221511 14.461765 0.000000 0.000000 0.000000 -0.626512 -0.161526 4.726040 4.054339 -0.233610 -25.936945 -1.954985 -0.480638 27.938091 0.414205 1.427542 -26.622286 0.000000 0.000000 0.000000 -28.955674 3.079973 -4.130126 -47.849444 -3.887792 -6.342278 -9.164229 -20.380579 2.631731 0.000000 0.000000 0.000000 18.528836 3.044515 0.794221 57.207330 2.825181 -6.778960 8.310747 27.236427 3.191878 0.000000 0.000000 0.000000 
0.001663 0.959441 0.000007 -1.844517 1.349027 3.292250 3.443461 -0.027394 0.878579 -4.237899 0.431856 -3.701336 9.298803 19.365521 12.162202 0.000000 0.000000 0.000000 -1.485967 0.377623 -3.792930 2.836142 -0.288336 1.307605 -5.617741 -15.554723 14.577549 0.000000 0.000000 0.000000 -0.749597 -0.161464 4.934264 4.195137 -0.241959 -26.314717 -1.890176 -0.350266 28.237577 0.367438 1.492254 -26.938600 0.000000 0.000000 0.000000 -28.926542 3.058397 -4.153109 -47.581925 -3.605183 -6.429971 -10.031933 -20.617957 2.818181 0.000000 0.000000 0.000000 18.254160 3.309726 0.991056 56.810604 3.100782 -6.647928 8.380441 26.734738 3.136911 0.000000 0.000000 0.000000 
